<svg width="63" height="63" viewBox="0 0 63 63" fill="none" xmlns="http://www.w3.org/2000/svg">
<path d="M52.1325 22.2075C52.3688 21.3938 52.5 20.5275 52.5 19.6875C52.5 14.91 48.8513 10.9725 44.1788 10.5525C43.6411 9.00878 42.6379 7.66982 41.3074 6.72014C39.9769 5.77045 38.3846 5.25681 36.75 5.25C34.7288 5.25 32.8913 6.0375 31.5 7.2975C30.1088 6.0375 28.2713 5.25 26.25 5.25C22.8375 5.25 19.9238 7.42875 18.8213 10.5263C16.5445 10.7478 14.4315 11.8084 12.8935 13.5018C11.3554 15.1951 10.5023 17.4 10.5 19.6875C10.5 20.5538 10.6312 21.3938 10.8675 22.2075C7.53375 23.9925 5.25 27.5363 5.25 31.5C5.25 34.335 6.37875 36.9863 8.32125 38.9288C8.0325 39.9263 7.875 40.95 7.875 42C7.875 47.145 11.5763 51.4238 16.5638 52.3163C18.0075 55.545 21.2888 57.75 24.9375 57.75C27.51 57.75 29.82 56.6738 31.5 54.9675C33.18 56.6738 35.49 57.75 38.0625 57.75C41.7113 57.75 44.9663 55.5713 46.4363 52.3425C48.8685 51.9134 51.0721 50.6419 52.6608 48.7508C54.2495 46.8597 55.1219 44.4698 55.125 42C55.125 40.95 54.9675 39.9263 54.6788 38.9288C56.6475 36.96 57.75 34.3088 57.75 31.5C57.75 27.5625 55.4925 23.9925 52.1325 22.2075ZM24.9375 52.5C23.0738 52.5 21.4463 51.1875 21.0788 49.35L20.5275 47.25H18.375C15.4875 47.25 13.125 44.8875 13.125 42C13.125 41.0813 13.335 40.215 13.7813 39.4275L14.9888 37.275L12.9413 35.9363C11.4188 34.9388 10.5 33.285 10.5 31.5C10.5 28.9275 12.39 26.7225 14.91 26.3288L19.3463 25.6463L16.5638 22.1025C16.0388 21.42 15.7238 20.5538 15.7238 19.6875C15.7238 17.5088 17.4825 15.75 19.6613 15.75C19.95 15.75 20.2125 15.7763 20.475 15.8288L23.5988 16.275V13.0988C23.5988 11.655 24.78 10.4738 26.2238 10.4738C27.6675 10.4738 28.8488 11.655 28.8488 13.0988V48.5363C28.8488 50.715 27.09 52.4738 24.9113 52.4738L24.9375 52.5ZM50.0588 35.9363L48.0113 37.275L49.2188 39.4275C49.665 40.215 49.875 41.0813 49.875 42C49.875 44.8875 47.5125 47.25 44.4938 47.25H42.3413L41.9213 49.35C41.5538 51.1613 39.9263 52.5 38.0625 52.5C35.8838 52.5 34.125 50.7413 34.125 48.5625V13.125C34.125 11.6813 35.3063 10.5 36.75 10.5C38.1938 10.5 39.375 11.6813 39.375 13.2563V16.4325L42.4988 15.855C42.7613 15.8025 43.05 15.7763 43.3125 15.7763C44.0491 15.7766 44.7709 15.9838 45.3955 16.3743C46.0201 16.7648 46.5224 17.323 46.8453 17.9851C47.1681 18.6472 47.2985 19.3867 47.2215 20.1193C47.1446 20.8519 46.8634 21.5482 46.41 22.1288L43.6275 25.6725L48.0638 26.355C50.5838 26.7488 52.4738 28.98 52.4738 31.5263C52.4738 33.3113 51.555 34.9913 50.0325 35.9625L50.0588 35.9363Z" fill="url(#paint0_linear_51_29)"/>
<defs>
<linearGradient id="paint0_linear_51_29" x1="31.5" y1="5.25" x2="31.5" y2="57.75" gradientUnits="userSpaceOnUse">
<stop stop-color="#FF1CF7"/>
<stop offset="0.0001" stop-color="#0587FF"/>
</linearGradient>
</defs>
</svg>
