<svg width="64" height="64" viewBox="0 0 64 64" fill="none" xmlns="http://www.w3.org/2000/svg">
<path d="M54.64 17.6798L33.3067 5.67984C32.5067 5.22651 31.4933 5.22651 30.6933 5.67984L9.36 17.6798C8.53333 18.1598 8 19.0398 8 19.9998V43.9998C8 44.9598 8.50667 45.8398 9.36 46.3198L30.6933 58.3198C31.0933 58.5598 31.5467 58.6665 32 58.6665C32.4533 58.6665 32.9067 58.5598 33.3067 58.3198L54.64 46.3198C55.4667 45.8398 56 44.9598 56 43.9998V19.9998C56 19.0398 55.4933 18.1598 54.64 17.6798ZM33.3333 11.8132L47.8933 19.9998L33.3333 28.1865V11.8132ZM30.6667 28.1865L16.1067 19.9998L30.6667 11.8132V28.1865ZM27.92 32.7465L13.3333 40.9598V24.5598L27.92 32.7732V32.7465ZM29.3333 35.0132V51.4132L14.7467 43.1998L29.3333 34.9865V35.0132ZM34.6667 35.0132L49.2533 43.2265L34.6667 51.4398V35.0398V35.0132ZM36.08 32.7465L50.6667 24.5332V40.9332L36.08 32.7198V32.7465Z" fill="white"/>
</svg>
