<svg width="64" height="64" viewBox="0 0 64 64" fill="none" xmlns="http://www.w3.org/2000/svg">
<path d="M57.4667 9.84025C56.72 9.36025 55.76 9.28025 54.9333 9.62692C48.2667 12.5069 41.3867 10.3736 34.1067 8.13358C26.2133 5.70692 18.0533 3.20025 9.6 6.85358C8.61333 7.28025 8 8.24025 8 9.30692V58.6936H13.3333V40.5336C19.4933 38.5869 25.84 40.5336 32.56 42.5869C37.6 44.1336 42.72 45.7069 47.9733 45.7069C50.96 45.7069 54 45.2003 57.0667 43.8669C58.0533 43.4403 58.6667 42.4803 58.6667 41.4136V12.0536C58.6667 11.1469 58.2133 10.3202 57.4667 9.81358V9.84025ZM43.2533 39.8669C43.6533 39.9202 44.0267 40.0003 44.4267 40.0536C44.0267 40.0003 43.6533 39.9469 43.2533 39.8669ZM53.36 23.6536C50.6933 24.3736 48.0267 24.4802 45.36 24.1869V32.1869C48.0267 32.4536 50.6933 32.3469 53.36 31.6536V39.5469C50.7467 40.3736 48.08 40.4536 45.36 40.1603V32.2136C42.6933 31.9469 40.0267 31.3069 37.36 30.5602V38.4536C36.2933 38.1336 35.2267 37.8136 34.1333 37.4936C32.56 37.0136 30.96 36.5336 29.36 36.0802V28.1603C26.6933 27.4136 24.0267 26.7736 21.36 26.5069V34.5069C21.4933 34.5069 21.6267 34.5602 21.76 34.5602C20.7467 34.4536 19.7333 34.3469 18.72 34.3469C16.9333 34.3469 15.1467 34.5336 13.36 34.9602V27.0403C16.0267 26.3203 18.6933 26.2136 21.36 26.5069V18.5069C18.6933 18.2402 16.0267 18.3469 13.36 19.0402V11.1469C15.9733 10.3202 18.64 10.2402 21.36 10.5336V18.4802C24.0267 18.7469 26.6933 19.3869 29.36 20.1336V12.2402C30.4267 12.5602 31.4933 12.8802 32.5867 13.2002C34.16 13.6802 35.76 14.1869 37.36 14.6136V22.5069C40.0267 23.2536 42.6933 23.8936 45.36 24.1603V16.1869C48 16.4269 50.6667 16.3469 53.36 15.7069V23.6269V23.6536Z" fill="white"/>
<path d="M29.3335 20.1338V28.1338C32.0002 28.8805 34.6668 29.7871 37.3335 30.5338V22.5338C34.6668 21.7871 32.0002 20.8805 29.3335 20.1338Z" fill="white"/>
</svg>
