<svg width="68" height="68" viewBox="0 0 68 68" fill="none" xmlns="http://www.w3.org/2000/svg">
<path d="M33.9998 5.66699C18.3882 5.66699 5.6665 18.3887 5.6665 34.0003C5.6665 49.612 18.3882 62.3337 33.9998 62.3337C49.6115 62.3337 62.3332 49.612 62.3332 34.0003C62.3332 18.3887 49.6115 5.66699 33.9998 5.66699ZM33.9998 56.667C21.5048 56.667 11.3332 46.4953 11.3332 34.0003C11.3332 21.5053 21.5048 11.3337 33.9998 11.3337C46.4948 11.3337 56.6665 21.5053 56.6665 34.0003C56.6665 46.4953 46.4948 56.667 33.9998 56.667Z" fill="url(#paint0_linear_51_21)"/>
<path d="M34.7933 24.9898L33.9999 25.7832L33.2066 24.9898C30.1183 21.8732 25.2449 21.8732 22.1283 24.9898C19.0399 28.1348 19.0399 33.0648 22.1283 36.1815L33.9716 48.1665L45.8149 36.1815C48.9033 33.0648 48.9033 28.1348 45.8149 24.9898C42.7266 21.8732 37.8249 21.8732 34.7366 24.9898H34.7933Z" fill="url(#paint1_linear_51_21)"/>
<defs>
<linearGradient id="paint0_linear_51_21" x1="33.9998" y1="5.66699" x2="33.9998" y2="62.3337" gradientUnits="userSpaceOnUse">
<stop stop-color="#FF1CF7"/>
<stop offset="0.0001" stop-color="#0587FF"/>
</linearGradient>
<linearGradient id="paint1_linear_51_21" x1="33.9716" y1="22.6523" x2="33.9716" y2="48.1665" gradientUnits="userSpaceOnUse">
<stop stop-color="#FF1CF7"/>
<stop offset="0.0001" stop-color="#0587FF"/>
</linearGradient>
</defs>
</svg>
