<svg width="64" height="64" viewBox="0 0 64 64" fill="none" xmlns="http://www.w3.org/2000/svg">
<path d="M53.3335 8H10.6668C7.7335 8 5.3335 10.4 5.3335 13.3333V45.3333C5.3335 48.2667 7.7335 50.6667 10.6668 50.6667H18.6668V56C18.6668 56.96 19.1735 57.84 20.0268 58.32C20.4347 58.5495 20.8957 58.6678 21.3637 58.6631C21.8317 58.6585 22.2903 58.5309 22.6935 58.2933L35.3868 50.6667H53.3068C56.2402 50.6667 58.6402 48.2667 58.6402 45.3333V13.3333C58.6402 10.4 56.2402 8 53.3068 8H53.3335ZM53.3335 45.3333H34.6668C34.1868 45.3333 33.7068 45.4667 33.3068 45.7067L24.0002 51.28V48C24.0002 46.5333 22.8002 45.3333 21.3335 45.3333H10.6668V13.3333H53.3335V45.3333Z" fill="white"/>
<path d="M42.6668 24.0003L40.0002 21.3337L37.3335 18.667L34.2668 21.7337L39.6002 27.067L42.6668 24.0003ZM34.6668 32.0003L37.7335 28.9337L32.4002 23.6003L29.3335 26.667L21.3335 34.667V40.0003H26.6668L34.6668 32.0003Z" fill="white"/>
</svg>
