<svg width="64" height="64" viewBox="0 0 64 64" fill="none" xmlns="http://www.w3.org/2000/svg">
<path d="M45.3336 29.333C44.2669 29.333 43.3336 29.9463 42.9069 30.9063L32.2402 54.9063L37.1202 57.0663L39.9736 50.6397H50.7202L53.5736 57.0663L58.4536 54.9063L47.7869 30.9063C47.3602 29.9463 46.4002 29.333 45.3602 29.333H45.3336ZM42.3202 45.333L45.3336 38.5597L48.3469 45.333H42.3202Z" fill="white"/>
<path d="M32.6668 39.9197L33.9735 34.7463C33.6268 34.6663 29.7068 33.5997 25.5202 30.9597C29.2535 27.1997 32.1602 22.2663 32.8268 15.9997H37.3068V10.6663H23.9735V5.33301H18.6402V10.6663H5.3335V15.9997H27.4668C26.8002 21.093 24.2935 24.9063 21.3068 27.733C19.4668 25.9997 17.8135 23.893 16.6668 21.333H10.9868C12.3202 25.173 14.5335 28.3463 17.1202 30.9597C12.9335 33.5997 9.0135 34.6663 8.66683 34.7463L9.9735 39.9197C13.1202 39.1197 17.3335 37.3597 21.3335 34.533C25.3068 37.3597 29.5468 39.1197 32.6668 39.9197Z" fill="white"/>
</svg>
